# xmcd
#
# Track frame offsets:
#	150
#	17360
#	28857
#	37707
#	49100
#	60534
#	72499
#	84672
#	98482
#	109227
#	131403
#	142223
#	155664
#	166736
#	180204
#	191032
#	203950
#	218533
#	228720
#	240774
#	263397
#	278489
#	290237
#	303392
#	315753
#	327090
#	340075
#
# Disc length: 4633 seconds
#
# Revision: 0
# Processed by: cddbd v1.5.2PL0 Copyright (c) Steve Scherf et al.
# Submitted via: EasyCDDAExtractor 15.2.5.1
#
DISCID=6a12171b
DTITLE=Various Artist - music to die for 2/2
DYEAR=1900
DGENRE=
TTITLE0=louvin brothers - knoxville girl
TTITLE1=nervous norvus - wild dogs of kentucky
TTITLE2=the cheers - chicken
TTITLE3=robert mitchum - ballad of thunder road
TTITLE4=tony casanova - the grave
TTITLE5=ralph bowman - the tragedy of school bus
TTITLE6=stanley brothers - no school bus in heaven
TTITLE7=everly brothers - down in the willow garden
TTITLE8=jody reynolds - endless sleep
TTITLE9=alfred hitchcock - music to be murdered by
TTITLE10=eddie cochroan - three stars
TTITLE11=johnny cash - don't take your guns to town
TTITLE12=everly brothers - take a message to mary
TTITLE13=ruby wright - three stars
TTITLE14=george jones - who shot sam?
TTITLE15=jacques brel - la mort
TTITLE16=paul hampton - two hour honeymoon
TTITLE17=gene vincent - blue eyes crying in the rain
TTITLE18=mark dinning - teen angel
TTITLE19=robert horton - sail ho!
TTITLE20=peter sellers - grandpa's grave
TTITLE21=johnny preston - running bear
TTITLE22=ray peterson - tell laura i love her
TTITLE23=marilyn michaels - tell tommy i miss him
TTITLE24=the cadets - car crash
TTITLE25=johnny cymbal - the water was red
TTITLE26=creed taylor orchestra - wreck of old 97
EXTD=
EXTT0=
EXTT1=
EXTT2=
EXTT3=
EXTT4=
EXTT5=
EXTT6=
EXTT7=
EXTT8=
EXTT9=
EXTT10=
EXTT11=
EXTT12=
EXTT13=
EXTT14=
EXTT15=
EXTT16=
EXTT17=
EXTT18=
EXTT19=
EXTT20=
EXTT21=
EXTT22=
EXTT23=
EXTT24=
EXTT25=
EXTT26=
PLAYORDER=
